<?xml version="1.0" standalone="no"?>
<!DOCTYPE svg PUBLIC "-//W3C//DTD SVG 20010904//EN"
 "http://www.w3.org/TR/2001/REC-SVG-20010904/DTD/svg10.dtd">
<svg version="1.0" xmlns="http://www.w3.org/2000/svg"
 width="300.000000pt" height="299.000000pt" viewBox="0 0 300.000000 299.000000"
 preserveAspectRatio="xMidYMid meet">
<metadata>
Created by potrace 1.10, written by Peter Selinger 2001-2011
</metadata>
<g transform="translate(0.000000,299.000000) scale(0.100000,-0.100000)"
fill="#000000" stroke="none">
<path d="M1424 2979 c-110 -14 -221 -89 -281 -190 -41 -69 -66 -167 -61 -236
l5 -52 -49 49 c-91 93 -238 142 -360 120 -345 -62 -478 -469 -233 -712 21 -21
42 -38 47 -38 4 0 8 -4 8 -9 0 -6 -14 -6 -34 0 -48 13 -155 -5 -225 -38 -72
-34 -159 -122 -197 -198 -27 -56 -29 -68 -29 -180 0 -112 2 -124 29 -180 37
-76 125 -164 197 -198 70 -33 177 -51 225 -38 20 6 34 6 34 0 0 -5 -4 -9 -8
-9 -5 0 -26 -16 -46 -36 -178 -173 -164 -469 29 -625 167 -134 414 -121 563
31 l49 49 -5 -52 c-16 -197 147 -400 342 -426 68 -9 61 10 -11 28 -183 47
-303 197 -303 382 0 104 -18 113 -86 43 -26 -26 -73 -59 -112 -77 -62 -30 -75
-32 -172 -32 -97 0 -110 2 -170 31 -171 81 -258 277 -205 460 19 67 38 97 107
171 71 77 61 88 -84 96 -225 12 -392 225 -350 447 24 128 91 219 206 275 85
42 89 43 183 44 62 1 74 4 83 21 9 17 3 27 -41 73 -72 73 -111 160 -117 257
-10 168 67 300 218 373 60 30 72 32 170 32 93 0 111 -3 163 -27 32 -15 84 -53
117 -84 75 -71 90 -66 90 36 0 131 59 251 158 323 46 32 129 67 162 67 18 0
58 26 50 32 -3 2 -28 1 -56 -3z"/>
<path d="M1523 2976 c2 -5 35 -20 74 -32 188 -57 280 -170 292 -360 8 -124 16
-131 83 -68 102 96 190 129 318 122 142 -8 265 -89 327 -216 25 -50 28 -69 30
-162 2 -98 0 -109 -28 -167 -16 -34 -52 -87 -80 -117 -72 -78 -66 -89 46 -97
118 -8 189 -36 261 -101 203 -186 149 -520 -104 -636 -43 -19 -78 -27 -142
-30 -127 -7 -138 -25 -61 -102 73 -73 104 -144 109 -250 5 -107 -12 -174 -65
-250 -71 -101 -193 -163 -317 -162 -114 1 -198 34 -281 113 -81 77 -91 70 -98
-72 -8 -165 -117 -298 -282 -344 -88 -25 -103 -44 -25 -34 194 27 348 215 338
415 l-3 70 48 -53 c193 -210 555 -150 680 115 30 63 32 74 32 177 0 103 -2
114 -32 178 -21 44 -52 88 -87 122 -55 53 -55 53 -21 44 45 -13 155 5 223 36
70 32 152 112 193 188 34 61 34 63 34 192 0 129 0 131 -34 192 -42 77 -123
156 -196 189 -67 31 -174 48 -221 35 -33 -9 -32 -9 22 44 35 34 66 78 87 122
30 64 32 75 32 178 0 103 -2 114 -32 177 -125 265 -487 325 -680 115 l-48 -53
3 70 c8 157 -83 307 -230 382 -54 28 -171 49 -165 30z"/>
<path d="M1436 2833 c-4 -5 -11 -8 -14 -9 -43 -5 -132 -77 -160 -128 -11 -22
-16 -57 -17 -121 0 -83 3 -95 32 -150 l33 -60 0 -195 c0 -110 -4 -189 -9 -182
-4 8 -12 13 -17 13 -16 -2 -276 262 -279 283 -8 59 -20 88 -54 132 -76 101
-208 136 -317 84 -54 -25 -114 -76 -114 -97 0 -7 -5 -13 -12 -13 -6 0 -8 -3
-5 -6 3 -4 1 -16 -5 -28 -7 -11 -12 -24 -13 -28 0 -3 -3 -10 -8 -14 -4 -4 -7
-29 -7 -55 0 -43 8 -70 44 -147 12 -28 98 -102 123 -107 10 -2 28 -4 41 -4 13
-1 21 -5 18 -9 -2 -4 5 -9 17 -9 13 -1 79 -60 166 -148 l146 -145 -208 0
c-207 0 -209 0 -241 25 -18 14 -43 25 -55 25 -13 0 -19 4 -16 11 5 7 -21 9
-79 8 -47 -1 -83 -6 -80 -10 3 -5 -6 -9 -19 -9 -28 0 -127 -83 -127 -106 0 -8
-4 -14 -8 -14 -5 0 -9 -6 -10 -12 -1 -7 -7 -36 -13 -64 -10 -40 -10 -64 1
-113 7 -33 16 -61 19 -61 3 0 12 -12 19 -27 13 -30 81 -85 108 -89 10 -2 21
-8 25 -15 4 -8 36 -15 75 -17 51 -4 65 -2 59 8 -5 9 -2 10 14 5 12 -4 21 -2
21 4 0 6 6 11 14 11 18 0 76 32 76 43 0 4 92 7 205 7 113 0 205 -4 205 -8 0
-10 -275 -286 -288 -289 -5 -1 -21 -4 -35 -7 -49 -9 -102 -40 -145 -84 -24
-24 -41 -46 -38 -49 3 -3 -4 -22 -15 -41 -25 -48 -25 -121 1 -171 10 -21 17
-41 14 -44 -9 -9 105 -119 116 -112 6 3 10 2 10 -2 0 -10 45 -17 110 -17 65 0
110 7 110 17 0 4 4 5 10 2 13 -8 103 84 118 121 6 16 16 47 21 70 8 30 29 58
85 112 41 40 73 72 71 72 -2 0 30 31 69 70 40 38 75 70 78 70 10 0 9 -292 -2
-305 -6 -7 -10 -37 -8 -67 2 -40 -1 -57 -14 -70 -10 -10 -20 -30 -24 -45 -3
-16 -8 -35 -11 -43 -7 -21 -7 -109 1 -117 3 -3 6 -15 6 -25 0 -24 56 -107 93
-138 17 -13 38 -23 49 -23 10 1 16 -1 14 -6 -3 -4 30 -8 72 -10 42 -1 80 -5
84 -7 4 -3 8 0 8 5 0 6 3 10 8 10 4 -1 10 0 15 1 11 4 26 7 36 9 23 3 82 73
110 130 41 86 42 145 2 223 -29 57 -30 61 -32 240 -1 101 -6 193 -10 206 -6
15 -5 21 1 17 6 -3 10 -1 10 5 0 6 65 -55 145 -137 80 -81 145 -153 145 -160
0 -26 33 -107 51 -126 10 -12 19 -24 19 -28 0 -4 21 -22 46 -39 55 -37 145
-49 215 -29 24 7 47 12 52 11 4 -1 7 2 7 8 0 6 4 9 8 8 5 -2 27 16 51 39 31
30 48 58 62 103 23 75 23 88 2 163 -12 42 -28 72 -58 103 -22 24 -46 44 -53
44 -7 0 -12 5 -12 10 0 6 -9 10 -19 10 -11 0 -23 5 -26 10 -4 6 -10 8 -14 6
-24 -15 -75 23 -201 148 -77 76 -137 142 -134 147 3 5 92 9 198 9 177 0 195
-2 218 -20 14 -10 28 -16 32 -13 3 3 6 1 6 -6 0 -7 4 -10 8 -7 5 3 20 -1 35
-9 14 -7 28 -11 31 -7 3 3 6 0 6 -6 0 -8 19 -12 50 -12 28 0 50 4 50 10 0 5 7
7 15 4 8 -4 15 -1 15 5 0 6 7 11 15 11 9 0 28 8 43 17 104 65 149 204 105 327
-21 58 -93 134 -134 143 -16 3 -29 9 -29 13 0 4 -36 8 -80 9 -51 1 -80 -2 -80
-8 0 -6 -8 -11 -19 -11 -10 0 -35 -11 -56 -25 -37 -26 -38 -26 -243 -25 l-206
2 71 69 c39 38 69 69 67 69 -3 0 19 21 48 48 29 26 63 59 77 75 18 19 36 27
61 28 29 0 31 2 15 9 -17 7 -14 9 13 9 73 2 154 76 182 169 25 80 25 98 0 175
-15 45 -32 72 -61 100 -23 20 -45 37 -49 37 -5 0 -15 7 -24 15 -8 9 -36 19
-61 24 -49 9 -135 3 -135 -10 0 -4 -13 -10 -28 -14 -28 -6 -60 -31 -97 -77
-32 -39 -42 -61 -49 -104 -6 -35 -25 -59 -135 -170 -71 -71 -137 -137 -147
-146 -19 -16 -19 -11 -17 192 0 115 5 215 9 222 40 64 54 108 54 166 0 35 -4
62 -10 62 -5 0 -9 3 -8 8 6 29 -86 150 -117 153 -5 1 -19 6 -30 12 -11 6 -23
10 -27 9 -5 -1 -8 3 -8 8 0 12 -123 14 -134 3z m151 -38 c136 -57 193 -207
128 -335 -13 -27 -29 -51 -35 -55 -6 -4 -10 -96 -10 -253 l0 -247 174 174
c159 158 175 178 181 216 23 155 204 248 343 176 85 -44 132 -122 132 -218 -1
-122 -82 -216 -205 -237 -35 -6 -62 -29 -207 -174 -93 -92 -168 -169 -168
-172 0 -3 111 -4 247 -2 188 2 251 6 263 16 107 94 293 54 362 -77 31 -59 31
-165 0 -224 -69 -131 -255 -171 -362 -77 -12 10 -75 14 -263 16 -136 2 -247 1
-247 -2 0 -3 75 -80 168 -172 145 -145 172 -168 207 -174 123 -21 204 -115
205 -237 0 -95 -47 -174 -130 -217 -141 -72 -322 19 -345 175 -6 38 -22 58
-181 216 l-174 174 0 -247 c0 -157 4 -249 10 -253 6 -4 22 -28 35 -55 34 -68
34 -152 0 -220 -103 -203 -415 -156 -451 68 -10 62 4 126 36 174 l30 43 0 245
0 245 -175 -175 c-143 -143 -175 -180 -175 -203 0 -65 -62 -152 -134 -189 -57
-30 -155 -30 -212 0 -140 72 -177 254 -76 372 40 47 96 79 147 82 31 3 55 23
210 178 l175 175 -246 -3 c-240 -3 -247 -4 -282 -27 -182 -119 -420 40 -373
249 14 61 57 126 104 155 79 49 193 47 267 -4 34 -24 40 -24 282 -27 l248 -3
-175 175 c-155 155 -179 175 -210 178 -51 3 -107 35 -147 82 -101 118 -64 300
76 372 57 30 155 30 212 0 72 -37 134 -124 134 -189 0 -23 32 -60 175 -203
l175 -175 0 245 0 245 -30 43 c-45 68 -52 171 -15 242 21 42 74 91 120 111 49
23 133 24 182 4z"/>
<path d="M1293 2085 c0 -38 2 -53 4 -32 2 20 2 52 0 70 -2 17 -4 1 -4 -38z"/>
</g>
</svg>
